<?xml version="1.0" standalone="no"?>
<!DOCTYPE svg PUBLIC "-//W3C//DTD SVG 20010904//EN"
 "http://www.w3.org/TR/2001/REC-SVG-20010904/DTD/svg10.dtd">
<svg version="1.0" xmlns="http://www.w3.org/2000/svg"
 width="754.000000pt" height="754.000000pt" viewBox="0 0 754.000000 754.000000"
 preserveAspectRatio="xMidYMid meet">
<metadata>
Created by potrace 1.14, written by Peter Selinger 2001-2017
</metadata>
<g transform="translate(0.000000,754.000000) scale(0.100000,-0.100000)"
fill="#000000" stroke="none">
<path d="M4782 7529 c-246 -32 -494 -170 -647 -362 -81 -102 -156 -251 -192
-382 l-28 -100 -3 -1388 -3 -1388 1028 3 1028 3 100 28 c358 97 624 364 722
722 l28 100 3 1388 3 1387 -988 -1 c-543 -1 -1016 -5 -1051 -10z"/>
<path d="M3 5793 c3 -910 5 -1035 20 -1093 100 -397 369 -667 767 -767 58 -15
206 -17 1453 -20 l1388 -4 -4 1028 c-3 910 -5 1035 -20 1093 -100 397 -369
667 -767 767 -58 15 -206 17 -1453 20 l-1388 4 4 -1028z"/>
<path d="M1592 3619 c-246 -32 -494 -170 -647 -362 -81 -102 -156 -251 -192
-382 l-28 -100 -3 -1388 -3 -1388 1028 3 1028 3 100 28 c358 97 624 364 722
722 l28 100 3 1388 3 1387 -988 -1 c-543 -1 -1016 -5 -1051 -10z"/>
<path d="M3913 2603 c3 -910 5 -1035 20 -1093 100 -397 369 -667 767 -767 58
-15 206 -17 1453 -20 l1388 -4 -4 1028 c-3 910 -5 1035 -20 1093 -100 397
-369 667 -767 767 -58 15 -206 17 -1453 20 l-1388 4 4 -1028z"/>
</g>
</svg>
