<?xml version="1.0" standalone="no"?>
<!DOCTYPE svg PUBLIC "-//W3C//DTD SVG 20010904//EN"
 "http://www.w3.org/TR/2001/REC-SVG-20010904/DTD/svg10.dtd">
<svg version="1.0" xmlns="http://www.w3.org/2000/svg"
 width="622.000000pt" height="622.000000pt" viewBox="0 0 622.000000 622.000000"
 preserveAspectRatio="xMidYMid meet">
<metadata>
Created by potrace 1.14, written by Peter Selinger 2001-2017
</metadata>
<g transform="translate(0.000000,622.000000) scale(0.100000,-0.100000)"
fill="#000000" stroke="none">
<path d="M4520 6209 c-46 -19 -92 -62 -111 -103 -18 -39 -19 -80 -19 -793 0
-714 1 -754 19 -795 23 -53 68 -94 121 -108 26 -7 290 -10 797 -8 653 3 761 5
783 18 45 27 87 79 99 122 9 32 11 240 9 793 l-3 750 -24 38 c-13 21 -42 50
-65 65 l-41 27 -770 2 c-494 1 -779 -2 -795 -8z"/>
<path d="M2325 4008 c-36 -13 -91 -62 -113 -103 -15 -27 -17 -104 -18 -780 -1
-813 -2 -799 54 -859 15 -16 45 -37 67 -47 38 -18 81 -19 800 -19 729 0 762 1
800 20 52 25 78 48 101 91 17 32 18 75 19 779 1 410 -2 760 -6 778 -10 48 -48
98 -94 124 l-40 23 -770 2 c-520 1 -780 -2 -800 -9z"/>
<path d="M4515 4007 c-59 -35 -89 -64 -106 -101 -18 -39 -19 -80 -19 -794 0
-729 1 -754 20 -796 23 -53 67 -92 118 -106 54 -15 1502 -14 1552 1 21 6 54
26 74 43 69 62 66 23 65 858 l0 753 -22 44 c-12 24 -41 57 -65 75 l-44 31
-776 2 c-586 1 -782 -1 -797 -10z"/>
<path d="M116 1800 c-51 -26 -94 -75 -106 -121 -7 -25 -10 -306 -8 -791 3
-705 4 -755 21 -785 21 -38 58 -69 106 -89 49 -20 1527 -20 1584 0 48 17 72
39 104 93 l24 42 1 753 c0 542 -4 761 -12 783 -19 51 -59 94 -105 115 -43 19
-64 20 -807 20 -735 -1 -764 -2 -802 -20z"/>
<path d="M2334 1812 c-44 -14 -95 -59 -117 -102 l-22 -45 -1 -750 c0 -812 -2
-790 53 -850 14 -15 44 -36 67 -46 39 -18 81 -19 801 -19 720 0 762 1 801 19
49 22 81 54 102 101 14 31 16 124 17 780 2 803 2 796 -51 853 -61 66 -10 62
-859 64 -423 1 -779 -2 -791 -5z"/>
<path d="M4527 1810 c-46 -14 -98 -60 -118 -104 -18 -39 -19 -80 -19 -794 0
-657 2 -757 15 -790 21 -49 51 -80 102 -103 40 -18 74 -19 791 -19 544 0 758
3 783 12 51 17 92 52 117 99 l22 41 -3 766 -2 767 -22 36 c-13 20 -42 49 -65
65 l-41 29 -766 2 c-421 1 -779 -2 -794 -7z"/>
</g>
</svg>
